<svg width="35" height="28" viewBox="0 0 35 28" fill="none" xmlns="http://www.w3.org/2000/svg">
<g opacity="0.3" clip-path="url(#clip0_49591_125293)">
<path fill-rule="evenodd" clip-rule="evenodd" d="M34.8465 4.3731C29.6273 6.80262 27.0177 9.65725 27.0177 12.9371C29.2423 13.18 31.0818 14.0405 32.5364 15.5184C33.9909 16.9964 34.7182 18.7071 34.7182 20.6508C34.7182 22.7158 34.0123 24.457 32.6005 25.8742C31.1888 27.2914 29.4134 28 27.2744 28C24.8787 28 22.8039 27.0788 21.0499 25.2364C19.2959 23.3941 18.4189 21.1569 18.4189 18.5249C18.4189 10.629 23.0819 4.45411 32.408 0L34.8465 4.3731ZM16.4276 4.3731C11.1656 6.80262 8.53467 9.65725 8.53467 12.9371C10.802 13.18 12.663 14.0405 14.1175 15.5184C15.572 16.9964 16.2993 18.7071 16.2993 20.6508C16.2993 22.7158 15.5827 24.457 14.1496 25.8742C12.7164 27.2914 10.9304 28 8.79135 28C6.39564 28 4.33152 27.0788 2.5989 25.2364C0.866293 23.3941 0 21.1569 0 18.5249C0 10.629 4.64162 4.45411 13.925 0L16.4276 4.3731Z" fill="url(#paint0_linear_49591_125293)"/>
</g>
<defs>
<linearGradient id="paint0_linear_49591_125293" x1="17.4233" y1="0" x2="17.4233" y2="28" gradientUnits="userSpaceOnUse">
<stop stop-color="#F69D01"/>
<stop offset="1" stop-color="#F65901"/>
</linearGradient>
<clipPath id="clip0_49591_125293">
<rect width="35" height="28" fill="white"/>
</clipPath>
</defs>
</svg>
